<svg xmlns="http://www.w3.org/2000/svg" viewBox="0 0 140 140">
  <defs>
    <linearGradient id="csky" x1="0" y1="0" x2="0" y2="1">
      <stop offset="0" stop-color="#2A2E5A"/>
      <stop offset="1" stop-color="#5E6BB0"/>
    </linearGradient>
  </defs>
  <rect width="140" height="140" fill="url(#csky)"/>
  <circle cx="108" cy="30" r="12" fill="#F2ECC8"/>
  <g fill="#fff"><circle cx="24" cy="24" r="1.5"/><circle cx="48" cy="16" r="1.2"/><circle cx="70" cy="30" r="1.4"/><circle cx="90" cy="18" r="1.2"/></g>
  <path d="M0 140 C40 110 100 110 140 140 Z" fill="#2E3A5E"/>
  <g fill="#3E4A78" stroke="#2A3050" stroke-width="2">
    <rect x="40" y="70" width="60" height="46"/>
    <rect x="34" y="56" width="14" height="60"/>
    <rect x="92" y="56" width="14" height="60"/>
    <rect x="62" y="46" width="16" height="70"/>
  </g>
  <g fill="#F2C64B"><rect x="66" y="66" width="8" height="10"/><rect x="38" y="72" width="6" height="8"/><rect x="96" y="72" width="6" height="8"/></g>
  <path d="M62 46 L70 34 L78 46 Z" fill="#E0574E"/>
</svg>
