<svg xmlns="http://www.w3.org/2000/svg" viewBox="0 0 140 140">
<g stroke="#26263a" stroke-width="3.5" stroke-linejoin="round" stroke-linecap="round">
  <path d="M70 12 C82 12 82 26 74 30 L70 26 Z" fill="#E0574E"/>
  <rect x="50" y="24" width="40" height="42" rx="16" fill="#C3CCD8"/>
  <rect x="54" y="42" width="32" height="8" rx="4" fill="#202A3A"/>
  <line x1="70" y1="30" x2="70" y2="42"/>
  <path d="M46 70 C46 64 54 60 70 60 C86 60 94 64 94 70 L98 116 L42 116 Z" fill="#C3CCD8"/>
  <ellipse cx="44" cy="72" rx="12" ry="10" fill="#8A93A2"/>
  <ellipse cx="96" cy="72" rx="12" ry="10" fill="#8A93A2"/>
  <rect x="66" y="78" width="8" height="24" rx="2" fill="#E0574E" stroke="none"/>
  <rect x="58" y="86" width="24" height="8" rx="2" fill="#E0574E" stroke="none"/>
  <rect x="52" y="116" width="14" height="14" rx="4" fill="#8A93A2"/>
  <rect x="74" y="116" width="14" height="14" rx="4" fill="#8A93A2"/>
</g>
</svg>
