<svg xmlns="http://www.w3.org/2000/svg" viewBox="0 0 140 140">
<g stroke="#26263a" stroke-width="3.5" stroke-linejoin="round" stroke-linecap="round">
  <path d="M52 34 l6 -10 6 10z" fill="#F2A73C"/>
  <path d="M64 30 l6 -10 6 10z" fill="#F2A73C"/>
  <path d="M76 34 l6 -10 6 10z" fill="#F2A73C"/>
  <rect x="40" y="44" width="60" height="70" rx="28" fill="#6BBE5B"/>
  <ellipse cx="70" cy="92" rx="17" ry="20" fill="#E8F3CE"/>
  <ellipse cx="54" cy="118" rx="11" ry="8" fill="#6BBE5B"/>
  <ellipse cx="86" cy="118" rx="11" ry="8" fill="#6BBE5B"/>
  <circle cx="59" cy="60" r="6.5" fill="#fff"/>
  <circle cx="81" cy="60" r="6.5" fill="#fff"/>
  <circle cx="60" cy="61" r="3" fill="#26263a" stroke="none"/>
  <circle cx="80" cy="61" r="3" fill="#26263a" stroke="none"/>
  <path d="M56 72 Q70 84 84 72 L84 76 Q70 88 56 76 Z" fill="#fff"/>
  <path d="M62 74 l0 6 M70 76 l0 8 M78 74 l0 6" stroke-width="2"/>
</g>
</svg>
